<svg version="1.2" xmlns="http://www.w3.org/2000/svg" viewBox="0 0 394 394" width="394" height="394"><style>.a{fill:#3c83f5}.b{fill:#2d6ee6}.c{fill:#f4f7f1}.d{fill:#f5f7f0}.e{fill:#f0f6f4}.f{fill:#f2f7f4}.g{fill:#eef6f5}.h{fill:#d1edfe}.i{fill:#3d83f2}</style><path class="a" d="m361.9 166q0.1 1.3 0.1 2.5c0 48 0.1 96 0 144-0.1 9.9-3.2 19-8.3 27.5-4.5 7.2-10.3 13.1-17.3 17.7-6.6 4.3-14 7.3-22 8.2-2.3 0.2-4.6 0.4-6.9 0.4q-110.9 0.1-221.9 0c-11.6 0-21.7-4.1-30.9-10.9-5.6-4.1-10.2-9-13.8-14.9-4.9-7.8-8.1-16.3-8.4-25.6-0.2-6.5-0.5-13-0.5-19.4 0-69.9-0.1-139.7 0-209.5 0.1-13.9 4.5-26.4 13.5-37.2 6.1-7.3 13.5-12.9 22.4-16.4 6.8-2.6 13.9-3.8 21.3-3.8 73.7 0 147.4 0 221.2 0.1 6.3 0 12.3 2 18.1 4.6 7.3 3.3 13.5 8 18.9 13.9 6.7 7.5 11.3 16.1 13 25.9 1 5.8 1.5 11.8 1.5 17.7 0.2 24.6 0.1 49.2-0.1 74.1-0.4 1.2-0.8 2.2-0.8 3.1q0 69.8 0 139.5c0 0.7 0.1 1.3 0.1 1.9 0.4-1.2 0.4-2.3 0.4-3.5q0-68.1 0-136.2c0-1.3 0.3-2.5 0.4-3.7zm-176.8-1.3q0.4-1 0.8-2.1-0.2-0.2-0.4-0.3c-1 0.9-2 1.8-3.3 2.8-2.7 3.4-5.5 6.7-8 10.2-1.8 2.5-3.1 5.3-4.8 7.9-2.6 3.7-5.8 5-9.2 3.9-3.6-1.1-5.7-4.2-5.8-8.6-0.1-5 1.4-9.6 4.3-13.4 4.4-5.6 9.3-10.8 14.1-16.2 4.8-5.5 10.5-10.6 14.6-16.6 13.2-19.3 3.1-45.5-19.4-51.5-13.3-3.5-26.4 1.9-32.3 13.5-0.6 1.2-1 2.6-1.6 4.2 2.8-0.2 5.1-0.5 7.4-0.5 2 0 3.5-0.4 4.7-2.2 1.4-2.3 3.7-1.6 5.6-1.1 1 0.3 2.1 1.6 2.4 2.7 0.7 2-0.8 3.3-2.3 4.5-1.3 1.1-2.8 2.4-3.3 3.9-1 3.1-1.5 6.5-2.2 10 1.1 0.1 1.5 0.2 2 0.1 7.4-0.4 13.7-2.9 18.4-9 3.2-4.2 8-3.8 10.5 0.9 0.9 1.8 1.6 4.1 1.7 6.1 0.3 6.1-2.5 11.1-6.5 15.3-5 5.4-10.5 10.4-15.8 15.5-5.5 5.4-10.3 11.1-13.8 18-8.3 16.2-5.8 34.4 6.6 47.7 9.6 10.1 21.8 15.1 35.3 17 4.3 0.6 8.6 0.7 12.9 1 0.1 0.3 0.3 0.5 0.3 0.7 0 13.2 0 26.4 0 39.5 0 0.7-0.8 1.6-1.5 1.9-3.2 1.6-6.5 2.9-9.7 4.5-4.3 2.2-7.7 5.5-8.6 10.2-0.9 5.3-0.7 10.9-1.1 16.6 3-0.6 5.1-1.7 6-3.8 1.2-2.6 2.4-5.4 2.8-8.2 0.8-6.1 3.4-10.5 9.4-12.9 5.8-2.2 11.3-4.9 16.9-7.5 8-3.6 15.9-7.2 23.8-10.9 3.1-1.4 3.7-4 1.8-6.7-0.6-0.9-1.4-1.7-2.1-2.5q-9.8-10.7-19.5-21.4c-0.7-0.7-1.2-1.5-2-2.5 9.5-2.8 17.8-7.2 25.4-13.7-1.8-0.3-3-0.5-4.1-0.7-8.1-1.5-16.4-2.4-24.2-4.6-18.9-5.5-28.1-18-27.5-36.6 0-0.4 0.1-0.8 0.3-1.6 0.1-0.4 0.2-0.8 0.4-1.4 0 0-0.1-0.3 0.1-0.6 0.1-0.4 0.2-0.8 0.5-1.5zm81.7 49.7c3 2.3 6 4.5 9.1 6.8 0.1-0.4 0.1-0.6 0.1-0.7q0.1-0.5 0-1c-2.4-24.6-12.8-44.6-34-58.1-9.9-6.4-21-9.2-32.9-7.9-13.8 1.5-21.9 13.8-18.1 27.1 2.1 7.4 7.1 12.3 13.6 15.9 9.1 5.1 19.1 6.6 29.3 7.8 11.4 1.4 22.7 3.5 32.9 10.1zm-124.2-111.4c-3.1 0.1-6.2 0.1-9.2 0.4-1.2 0.2-2.5 0.8-3.3 1.6-3 3-6 6.1-8.6 9.4-2.6 3.3-3.7 7.2-3.6 11.5 0.4 8.9 4.5 16.2 10.6 22.5 0.6 0.6 2.2 1.2 2.8 0.8 0.8-0.4 1.5-1.8 1.5-2.7 0.2-2.6-0.3-5.2-0.2-7.8 0.2-2.3-0.6-3.7-2.3-5.2-7-6-6.7-13.2-1.2-19 4-4.2 8.8-7.5 13.5-11.5zm55.4 201.7c0 6.3-1.4 8.2-7.4 10.1-3.3 1-6.7 2-10 3.2-1.7 0.6-3.2 1.6-2.9 3.9 8.6 0 17.2 0 25.7 0 0-14.4 0-28.5 0-42.6-4.2 0.8-5.4 2.2-5.4 6.2 0 6.2 0 12.5 0 19.2zm-62.5-178.9c1.4-1.7 2.7-3.5 4.2-5.3 2.1-2.6 3.5-8.2 2.7-12.5-3.9 3.8-7.9 6.9-11.1 10.7-3.3 3.9-2.2 8.2 2.1 11.2 0.7-1.3 1.3-2.5 2.1-4.1z"/><path class="b" d="m362 165.8c-0.2 1.4-0.5 2.6-0.5 3.9q0 68.1 0 136.2c0 1.2 0 2.3-0.4 3.5 0-0.6-0.1-1.2-0.1-1.9q0-69.7 0-139.5c0-0.9 0.4-1.9 0.8-2.9 0.2 0.1 0.2 0.4 0.2 0.7z"/><path class="c" d="m183.5 170c-0.3 18.4 8.9 30.9 27.8 36.4 7.8 2.2 16.1 3.1 24.2 4.6 1.1 0.2 2.3 0.4 4.1 0.7-7.6 6.5-15.9 10.9-25.4 13.7 0.8 1 1.3 1.8 2 2.5q9.7 10.7 19.5 21.4c0.7 0.8 1.5 1.6 2.1 2.5 1.9 2.7 1.3 5.3-1.8 6.7-7.9 3.7-15.8 7.3-23.8 10.9-5.6 2.6-11.1 5.3-16.9 7.5-6 2.4-8.6 6.8-9.4 12.9-0.4 2.8-1.6 5.6-2.8 8.2-0.9 2.1-3 3.2-6 3.8 0.4-5.7 0.2-11.3 1.1-16.6 0.9-4.7 4.3-8 8.6-10.2 3.2-1.6 6.5-2.9 9.7-4.5 0.7-0.3 1.5-1.2 1.5-1.9 0-13.1 0-26.3 0-39.5 0-0.2-0.2-0.4-0.3-0.7-4.3-0.3-8.6-0.4-12.9-1-13.5-1.9-25.7-6.9-35.3-17-12.4-13.3-14.9-31.5-6.6-47.7 3.5-6.9 8.3-12.6 13.8-18 5.3-5.1 10.8-10.1 15.8-15.5 4-4.2 6.8-9.2 6.5-15.3-0.1-2-0.8-4.3-1.7-6.1-2.5-4.7-7.3-5.1-10.5-0.9-4.7 6.1-11 8.6-18.4 9-0.5 0.1-0.9 0-2-0.1 0.7-3.5 1.2-6.9 2.2-10 0.5-1.5 2-2.8 3.3-3.9 1.5-1.2 3-2.5 2.3-4.5-0.3-1.1-1.4-2.4-2.4-2.7-1.9-0.5-4.2-1.2-5.6 1.1-1.2 1.8-2.7 2.2-4.7 2.2-2.3 0-4.6 0.3-7.4 0.5 0.6-1.6 1-3 1.6-4.2 5.9-11.6 19-17 32.3-13.5 22.5 6 32.6 32.2 19.4 51.5-4.1 6-9.8 11.1-14.6 16.6-4.8 5.4-9.7 10.6-14.1 16.2-2.9 3.8-4.4 8.4-4.3 13.4 0.1 4.4 2.2 7.5 5.8 8.6 3.4 1.1 6.6-0.2 9.2-3.9 1.7-2.6 3-5.4 4.8-7.9 2.5-3.5 5.3-6.8 8.3-10.3 1.1 0 1.7 0 2.4 0-0.1 0.4-0.2 0.8-0.4 1.4-0.2 0.3-0.2 0.5-0.1 0.6-0.1 0.4-0.2 0.8-0.5 1.5-0.2 0.7-0.3 1.1-0.4 1.5zm20 83.8c0 4.4 0 8.8 0 13.6 8.5-3.9 16.4-7.4 24.2-11 4.1-1.9 4.3-3 1.2-6.4-6.3-6.9-12.8-13.7-19-20.7-1.9-2.2-3.7-2.8-6.4-1.4 0 8.4 0 16.9 0 25.9z"/><path class="d" d="m266.7 214.3c-10.1-6.5-21.4-8.6-32.8-10-10.2-1.2-20.2-2.7-29.3-7.8-6.5-3.6-11.5-8.5-13.6-15.9-3.8-13.3 4.3-25.6 18.1-27.1 11.9-1.3 23 1.5 32.9 7.9 21.2 13.5 31.6 33.5 34 58.1q0.1 0.5 0 1c0 0.1 0 0.3-0.1 0.7-3.1-2.3-6.1-4.5-9.2-6.9z"/><path class="e" d="m142.5 103.1c-4.6 3.9-9.4 7.2-13.4 11.4-5.5 5.8-5.8 13 1.2 19 1.7 1.5 2.5 2.9 2.3 5.2-0.1 2.6 0.4 5.2 0.2 7.8 0 0.9-0.7 2.3-1.5 2.7-0.6 0.4-2.2-0.2-2.8-0.8-6.1-6.3-10.2-13.6-10.6-22.5-0.1-4.3 1-8.2 3.6-11.5 2.6-3.3 5.6-6.4 8.6-9.4 0.8-0.8 2.1-1.4 3.3-1.6 3-0.3 6.1-0.3 9.1-0.3z"/><path class="f" d="m198 304.4c0-6.4 0-12.7 0-18.9 0-4 1.2-5.4 5.4-6.2 0 14.1 0 28.2 0 42.6-8.5 0-17.1 0-25.7 0-0.3-2.3 1.2-3.3 2.9-3.9 3.3-1.2 6.7-2.2 10-3.2 6-1.9 7.4-3.8 7.4-10.4z"/><path class="g" d="m135.4 126c-0.7 1.4-1.3 2.6-2 3.9-4.3-3-5.4-7.3-2.1-11.2 3.2-3.8 7.2-6.9 11.1-10.7 0.8 4.3-0.6 9.9-2.7 12.5-1.5 1.8-2.8 3.6-4.3 5.5z"/><path class="h" d="m185 164.9c-0.8 0.1-1.4 0.1-2.3 0.1 0.8-0.9 1.8-1.8 2.8-2.7q0.2 0.1 0.4 0.3c-0.3 0.7-0.5 1.4-0.9 2.3z"/><path class="h" d="m183.7 169.9q-0.1-0.4 0.2-1.2 0 0.4-0.2 1.2z"/><path class="h" d="m184.4 166.9c-0.1 0-0.1-0.2 0-0.3 0-0.1 0.1 0.2 0 0.3z"/><path class="i" d="m203.5 253.5c0-8.7 0-17.2 0-25.6 2.7-1.4 4.5-0.8 6.4 1.4 6.2 7 12.7 13.8 19 20.7 3.1 3.4 2.9 4.5-1.2 6.4-7.8 3.6-15.7 7.1-24.2 11 0-4.8 0-9.2 0-13.9z"/></svg>