<svg version="1.1" id="Layer_1" xmlns="http://www.w3.org/2000/svg" xmlns:xlink="http://www.w3.org/1999/xlink" x="0px" y="0px"
	 width="100%" viewBox="0 0 1408 768" enable-background="new 0 0 1408 768" xml:space="preserve">
<path fill="#3C83F5" opacity="1.000000" stroke="none" 
	d="
M1034.864746,322.004425 
	C1034.910156,323.668518 1034.995117,325.332642 1034.995239,326.996735 
	C1035.001221,422.991852 1035.119263,518.987183 1034.902222,614.981812 
	C1034.857422,634.776550 1028.685303,653.047607 1018.310974,669.949524 
	C1009.453552,684.380005 997.896973,696.230591 983.836670,705.395874 
	C970.503296,714.087402 955.872070,719.986328 939.863342,721.774719 
	C935.295837,722.284973 930.686096,722.682373 926.095581,722.683716 
	C778.104309,722.728577 630.112976,722.740723 482.121704,722.693176 
	C458.988098,722.685730 438.798615,714.378052 420.314178,700.798340 
	C409.144440,692.592346 399.941589,682.752075 392.751801,671.081909 
	C383.067657,655.362976 376.546173,638.480957 376.005859,619.727356 
	C375.633148,606.791016 375.048828,593.852783 375.042358,580.915161 
	C374.972595,441.255615 374.886871,301.595917 375.093781,161.936676 
	C375.134918,134.189270 383.929413,109.289322 401.909546,87.687515 
	C414.192474,72.930511 428.921722,61.815323 446.727661,54.860886 
	C460.376740,49.529984 474.523376,47.121769 489.303192,47.137726 
	C636.792603,47.296982 784.282288,47.159695 931.771545,47.365406 
	C944.395081,47.383011 956.497314,51.409939 967.992859,56.624195 
	C982.519653,63.213490 995.050659,72.610435 1005.743835,84.475021 
	C1019.173279,99.375580 1028.479126,116.500031 1031.833008,136.281586 
	C1033.802124,147.895889 1034.787231,159.804810 1034.863525,171.589981 
	C1035.181763,220.751328 1034.987427,269.916016 1034.602051,319.745392 
	C1033.823242,322.294739 1033.075317,324.177948 1033.073975,326.061646 
	C1033.009399,419.056335 1033.007935,512.051086 1033.010742,605.045776 
	C1033.010742,606.308105 1033.155273,607.570435 1033.232300,608.832703 
	C1034.005371,606.461731 1034.005615,604.145813 1034.005371,601.829895 
	C1033.997314,511.001709 1033.981934,420.173523 1034.017700,329.345337 
	C1034.018677,326.898285 1034.570068,324.451385 1034.864746,322.004425 
M681.213806,319.465851 
	C681.751282,318.027344 682.288696,316.588806 682.826172,315.150299 
	C682.570312,314.956329 682.314392,314.762390 682.058533,314.568420 
	C680.030823,316.339661 678.003113,318.110870 675.375671,320.192596 
	C670.044983,326.975189 664.489868,333.596466 659.459473,340.594910 
	C655.875061,345.581665 653.237732,351.242249 649.745422,356.303864 
	C644.633545,363.712738 638.158386,366.320343 631.456482,364.255493 
	C624.215698,362.024628 620.001404,355.740936 619.810303,346.906433 
	C619.596619,337.025360 622.642639,327.839447 628.471558,320.298218 
	C637.195862,309.011139 647.052734,298.594696 656.509521,287.880005 
	C666.299255,276.788086 677.517090,266.690002 685.785217,254.570908 
	C712.122192,215.967514 692.009644,163.591812 647.043579,151.620850 
	C620.468933,144.546082 594.256714,155.470352 582.380249,178.655319 
	C581.144104,181.068466 580.387268,183.727188 579.138184,186.973480 
	C584.760437,186.596664 589.387390,186.096115 594.020142,186.034485 
	C597.937134,185.982376 601.062500,185.123367 603.349976,181.542664 
	C606.191772,177.094345 610.848694,178.391983 614.641357,179.424545 
	C616.622986,179.964050 618.730835,182.644485 619.413086,184.792633 
	C620.709045,188.873169 617.795776,191.390091 614.812500,193.872406 
	C612.221558,196.028275 609.157654,198.550812 608.187134,201.525986 
	C606.114746,207.878952 605.263123,214.630142 603.819519,221.666016 
	C605.904236,221.779465 606.871887,221.921112 607.829407,221.870850 
	C622.662170,221.092361 635.299622,216.038223 644.621521,203.804733 
	C651.033875,195.389435 660.543213,196.159042 665.504822,205.556137 
	C667.459351,209.258087 668.715576,213.700790 668.933838,217.877075 
	C669.565125,229.950699 664.029236,239.975693 656.094666,248.363480 
	C645.915955,259.123657 635.006836,269.195862 624.349182,279.499146 
	C613.379578,290.104034 603.743042,301.678864 596.785706,315.391083 
	C580.292847,347.896881 585.146301,384.232269 610.074097,410.726135 
	C629.177917,431.030121 653.562561,440.943512 680.624695,444.861176 
	C689.130127,446.092499 697.798279,446.199921 706.445068,446.825592 
	C706.626221,447.336517 706.925659,447.788269 706.926819,448.240845 
	C706.997314,474.570831 707.085999,500.901062 706.963562,527.230286 
	C706.957397,528.534424 705.365845,530.381836 704.046387,531.035828 
	C697.637390,534.212402 690.978210,536.885864 684.580078,540.082458 
	C675.994690,544.371887 669.110596,550.987427 667.486450,560.434143 
	C665.653931,571.092773 665.902222,582.109131 665.208923,593.574646 
	C671.266479,592.467957 675.309692,590.253784 677.252380,586.003662 
	C679.641968,580.775940 681.998413,575.242249 682.763245,569.622253 
	C684.432068,557.359863 689.561646,548.573853 701.673828,543.894714 
	C713.144531,539.463501 724.197205,533.944885 735.409790,528.851807 
	C751.320923,521.624512 767.238770,514.410645 783.094116,507.062408 
	C789.145691,504.257751 790.447510,499.010498 786.644043,493.541870 
	C785.414795,491.774414 783.880981,490.210754 782.423340,488.611298 
	C769.404419,474.325531 756.363708,460.059509 743.354187,445.765137 
	C742.083923,444.369385 740.979675,442.822510 739.393982,440.840240 
	C758.446533,435.187836 774.908081,426.465088 790.107849,413.329163 
	C786.588440,412.762329 784.285583,412.439514 782.001526,412.015808 
	C765.830261,409.016144 749.285156,407.294556 733.569397,402.723602 
	C695.705688,391.710907 677.372009,366.857819 678.560608,329.639984 
	C678.675537,328.770874 678.790527,327.901733 679.137329,326.439087 
	C679.340088,325.620087 679.542847,324.801056 679.929749,323.540924 
	C679.929749,323.540924 679.896973,323.064056 680.184204,322.486206 
	C680.408875,321.665863 680.633484,320.845551 681.213806,319.465851 
M844.622681,418.847839 
	C850.621033,423.320801 856.619385,427.793793 862.782349,432.389496 
	C862.941895,431.575073 863.049927,431.252136 863.059570,430.926300 
	C863.079224,430.261383 863.091919,429.590454 863.028076,428.929688 
	C858.272156,379.710541 837.300598,339.781555 794.996765,312.761169 
	C775.126404,300.069580 752.999451,294.423279 729.246887,297.045166 
	C701.691528,300.086853 685.357971,324.654053 692.940674,351.279907 
	C697.147522,366.051849 707.255554,375.836761 720.141846,383.012421 
	C738.309753,393.129150 758.444641,396.162872 778.726807,398.581360 
	C801.655090,401.315399 824.145752,405.604279 844.622681,418.847839 
M596.112000,195.921494 
	C589.986084,196.200333 583.832520,196.225159 577.748413,196.887833 
	C575.439270,197.139313 572.777710,198.355026 571.159668,199.999832 
	C565.217407,206.040314 559.257629,212.141541 554.044678,218.799469 
	C548.899658,225.370651 546.512024,233.238754 546.868591,241.715469 
	C547.623413,259.657471 555.829773,274.191101 567.976746,286.766205 
	C569.228149,288.061646 572.328186,289.110016 573.616760,288.439728 
	C575.212158,287.609863 576.602417,284.899628 576.687439,282.941223 
	C576.910461,277.803375 575.957458,272.607117 576.269226,267.482574 
	C576.549683,262.872253 575.099121,259.995117 571.529297,256.956604 
	C557.512573,245.026108 558.120483,230.614441 569.217651,219.024887 
	C577.201172,210.687088 586.864014,203.957199 596.112000,195.921494 
M707.050720,599.374512 
	C706.990601,612.015442 704.129761,615.879883 692.194580,619.601135 
	C685.524902,621.680664 678.827087,623.690491 672.245300,626.023132 
	C668.765015,627.256531 665.720459,629.265015 666.397339,633.893066 
	C683.696411,633.893066 700.726379,633.893066 717.832825,633.893066 
	C717.832825,605.096130 717.832825,576.827637 717.832825,548.506104 
	C709.476746,550.190796 707.094971,552.955811 707.074341,560.909180 
	C707.041809,573.408203 707.056274,585.907410 707.050720,599.374512 
M582.064514,241.682129 
	C584.805847,238.130768 587.494629,234.537201 590.300842,231.037888 
	C594.554749,225.733337 597.366760,214.563080 595.889771,206.052368 
	C588.005371,213.503067 580.031860,219.865341 573.548035,227.493790 
	C567.023682,235.169861 569.225464,243.781662 577.838684,249.761154 
	C579.137817,247.271027 580.428528,244.796936 582.064514,241.682129 
z"/>
<path fill="#2D6EE6" opacity="1.000000" stroke="none" 
	d="
M1034.938599,321.674988 
	C1034.570068,324.451385 1034.018677,326.898285 1034.017700,329.345337 
	C1033.981934,420.173523 1033.997314,511.001709 1034.005371,601.829895 
	C1034.005615,604.145813 1034.005371,606.461731 1033.232300,608.832703 
	C1033.155273,607.570435 1033.010742,606.308105 1033.010742,605.045776 
	C1033.007935,512.051086 1033.009399,419.056335 1033.073975,326.061646 
	C1033.075317,324.177948 1033.823242,322.294739 1034.543701,320.211609 
	C1034.913940,320.456451 1034.963135,320.901001 1034.938599,321.674988 
z"/>
<path fill="#F4F7F1" opacity="1.000000" stroke="none" 
	d="
M678.040649,330.063354 
	C677.372009,366.857819 695.705688,391.710907 733.569397,402.723602 
	C749.285156,407.294556 765.830261,409.016144 782.001526,412.015808 
	C784.285583,412.439514 786.588440,412.762329 790.107849,413.329163 
	C774.908081,426.465088 758.446533,435.187836 739.393982,440.840240 
	C740.979675,442.822510 742.083923,444.369385 743.354187,445.765137 
	C756.363708,460.059509 769.404419,474.325531 782.423340,488.611298 
	C783.880981,490.210754 785.414795,491.774414 786.644043,493.541870 
	C790.447510,499.010498 789.145691,504.257751 783.094116,507.062408 
	C767.238770,514.410645 751.320923,521.624512 735.409790,528.851807 
	C724.197205,533.944885 713.144531,539.463501 701.673828,543.894714 
	C689.561646,548.573853 684.432068,557.359863 682.763245,569.622253 
	C681.998413,575.242249 679.641968,580.775940 677.252380,586.003662 
	C675.309692,590.253784 671.266479,592.467957 665.208923,593.574646 
	C665.902222,582.109131 665.653931,571.092773 667.486450,560.434143 
	C669.110596,550.987427 675.994690,544.371887 684.580078,540.082458 
	C690.978210,536.885864 697.637390,534.212402 704.046387,531.035828 
	C705.365845,530.381836 706.957397,528.534424 706.963562,527.230286 
	C707.085999,500.901062 706.997314,474.570831 706.926819,448.240845 
	C706.925659,447.788269 706.626221,447.336517 706.445068,446.825592 
	C697.798279,446.199921 689.130127,446.092499 680.624695,444.861176 
	C653.562561,440.943512 629.177917,431.030121 610.074097,410.726135 
	C585.146301,384.232269 580.292847,347.896881 596.785706,315.391083 
	C603.743042,301.678864 613.379578,290.104034 624.349182,279.499146 
	C635.006836,269.195862 645.915955,259.123657 656.094666,248.363480 
	C664.029236,239.975693 669.565125,229.950699 668.933838,217.877075 
	C668.715576,213.700790 667.459351,209.258087 665.504822,205.556137 
	C660.543213,196.159042 651.033875,195.389435 644.621521,203.804733 
	C635.299622,216.038223 622.662170,221.092361 607.829407,221.870850 
	C606.871887,221.921112 605.904236,221.779465 603.819519,221.666016 
	C605.263123,214.630142 606.114746,207.878952 608.187134,201.525986 
	C609.157654,198.550812 612.221558,196.028275 614.812500,193.872406 
	C617.795776,191.390091 620.709045,188.873169 619.413086,184.792633 
	C618.730835,182.644485 616.622986,179.964050 614.641357,179.424545 
	C610.848694,178.391983 606.191772,177.094345 603.349976,181.542664 
	C601.062500,185.123367 597.937134,185.982376 594.020142,186.034485 
	C589.387390,186.096115 584.760437,186.596664 579.138184,186.973480 
	C580.387268,183.727188 581.144104,181.068466 582.380249,178.655319 
	C594.256714,155.470352 620.468933,144.546082 647.043579,151.620850 
	C692.009644,163.591812 712.122192,215.967514 685.785217,254.570908 
	C677.517090,266.690002 666.299255,276.788086 656.509521,287.880005 
	C647.052734,298.594696 637.195862,309.011139 628.471558,320.298218 
	C622.642639,327.839447 619.596619,337.025360 619.810303,346.906433 
	C620.001404,355.740936 624.215698,362.024628 631.456482,364.255493 
	C638.158386,366.320343 644.633545,363.712738 649.745422,356.303864 
	C653.237732,351.242249 655.875061,345.581665 659.459473,340.594910 
	C664.489868,333.596466 670.044983,326.975189 676.079224,320.066101 
	C678.141174,319.968140 679.499695,319.996674 680.858154,320.025208 
	C680.633484,320.845551 680.408875,321.665863 679.937988,322.860168 
	C679.551514,323.494690 679.569458,323.743988 679.745605,323.982025 
	C679.542847,324.801056 679.340088,325.620087 678.843567,327.003540 
	C678.380127,328.399811 678.210388,329.231567 678.040649,330.063354 
M718.031677,497.500000 
	C718.031677,506.337952 718.031677,515.175903 718.031677,524.848328 
	C735.011658,517.095154 750.707703,509.933441 766.398987,502.761322 
	C774.598938,499.013275 775.042419,496.820221 768.875793,490.097473 
	C756.175415,476.251953 743.275208,462.584076 730.833496,448.510468 
	C727.018433,444.194946 723.438110,442.961975 718.033142,445.881409 
	C718.033142,462.623596 718.033142,479.561798 718.031677,497.500000 
z"/>
<path fill="#F5F7F0" opacity="1.000000" stroke="none" 
	d="
M844.318481,418.647614 
	C824.145752,405.604279 801.655090,401.315399 778.726807,398.581360 
	C758.444641,396.162872 738.309753,393.129150 720.141846,383.012421 
	C707.255554,375.836761 697.147522,366.051849 692.940674,351.279907 
	C685.357971,324.654053 701.691528,300.086853 729.246887,297.045166 
	C752.999451,294.423279 775.126404,300.069580 794.996765,312.761169 
	C837.300598,339.781555 858.272156,379.710541 863.028076,428.929688 
	C863.091919,429.590454 863.079224,430.261383 863.059570,430.926300 
	C863.049927,431.252136 862.941895,431.575073 862.782349,432.389496 
	C856.619385,427.793793 850.621033,423.320801 844.318481,418.647614 
z"/>
<path fill="#F0F6F4" opacity="1.000000" stroke="none" 
	d="
M595.944946,196.215775 
	C586.864014,203.957199 577.201172,210.687088 569.217651,219.024887 
	C558.120483,230.614441 557.512573,245.026108 571.529297,256.956604 
	C575.099121,259.995117 576.549683,262.872253 576.269226,267.482574 
	C575.957458,272.607117 576.910461,277.803375 576.687439,282.941223 
	C576.602417,284.899628 575.212158,287.609863 573.616760,288.439728 
	C572.328186,289.110016 569.228149,288.061646 567.976746,286.766205 
	C555.829773,274.191101 547.623413,259.657471 546.868591,241.715469 
	C546.512024,233.238754 548.899658,225.370651 554.044678,218.799469 
	C559.257629,212.141541 565.217407,206.040314 571.159668,199.999832 
	C572.777710,198.355026 575.439270,197.139313 577.748413,196.887833 
	C583.832520,196.225159 589.986084,196.200333 595.944946,196.215775 
z"/>
<path fill="#F2F7F4" opacity="1.000000" stroke="none" 
	d="
M707.050781,598.890503 
	C707.056274,585.907410 707.041809,573.408203 707.074341,560.909180 
	C707.094971,552.955811 709.476746,550.190796 717.832825,548.506104 
	C717.832825,576.827637 717.832825,605.096130 717.832825,633.893066 
	C700.726379,633.893066 683.696411,633.893066 666.397339,633.893066 
	C665.720459,629.265015 668.765015,627.256531 672.245300,626.023132 
	C678.827087,623.690491 685.524902,621.680664 692.194580,619.601135 
	C704.129761,615.879883 706.990601,612.015442 707.050781,598.890503 
z"/>
<path fill="#EEF6F5" opacity="1.000000" stroke="none" 
	d="
M581.891846,242.002487 
	C580.428528,244.796936 579.137817,247.271027 577.838684,249.761154 
	C569.225464,243.781662 567.023682,235.169861 573.548035,227.493790 
	C580.031860,219.865341 588.005371,213.503067 595.889771,206.052368 
	C597.366760,214.563080 594.554749,225.733337 590.300842,231.037888 
	C587.494629,234.537201 584.805847,238.130768 581.891846,242.002487 
z"/>
<path fill="#D1EDFE" opacity="1.000000" stroke="none" 
	d="
M681.036011,319.745544 
	C679.499695,319.996674 678.141174,319.968140 676.379028,319.910828 
	C678.003113,318.110870 680.030823,316.339661 682.058533,314.568420 
	C682.314392,314.762390 682.570312,314.956329 682.826172,315.150299 
	C682.288696,316.588806 681.751282,318.027344 681.036011,319.745544 
z"/>
<path fill="#D1EDFE" opacity="1.000000" stroke="none" 
	d="
M678.300659,329.851685 
	C678.210388,329.231567 678.380127,328.399811 678.727661,327.300293 
	C678.790527,327.901733 678.675537,328.770874 678.300659,329.851685 
z"/>
<path fill="#D1EDFE" opacity="1.000000" stroke="none" 
	d="
M679.837646,323.761475 
	C679.569458,323.743988 679.551514,323.494690 679.794434,323.149109 
	C679.896973,323.064056 679.929749,323.540924 679.837646,323.761475 
z"/>
<path fill="#3D83F2" opacity="1.000000" stroke="none" 
	d="
M718.032410,497.000000 
	C718.033142,479.561798 718.033142,462.623596 718.033142,445.881409 
	C723.438110,442.961975 727.018433,444.194946 730.833496,448.510468 
	C743.275208,462.584076 756.175415,476.251953 768.875793,490.097473 
	C775.042419,496.820221 774.598938,499.013275 766.398987,502.761322 
	C750.707703,509.933441 735.011658,517.095154 718.031677,524.848328 
	C718.031677,515.175903 718.031677,506.337952 718.032410,497.000000 
z"/>
</svg>